<svg id="Layer_1" data-name="Layer 1" xmlns="http://www.w3.org/2000/svg" viewBox="0 0 386.67 86.31"><defs><style>.cls-1{fill:#ececec;}</style></defs><title>logo-center</title><path class="cls-1" d="M2.44,24c0-9,6.77-13.15,14.45-13.15,7.92,0,12,3.36,12,7.78a4.92,4.92,0,0,1-.19,1.58l-4.27.14a3.29,3.29,0,0,0,.1-1.06c-.15-3.45-2.6-5.34-7.74-5.34C11.22,14,7,17,7,23.81c0,7.15,4.46,10.42,9.7,10.42,5.81,0,9.07-2.3,9.07-6a7.59,7.59,0,0,0-.19-1.82l3.6-.29a9.06,9.06,0,0,1,.38,2.78c0,4.46-4.18,8.59-12.86,8.59S2.44,32.5,2.44,24Z"/><path class="cls-1" d="M49.57,10.9c6.77,0,14.35,4.27,14.35,13.3,0,9.22-7.34,13.25-14.35,13.25s-14.45-4-14.45-13.25C35.13,15.22,42.71,10.9,49.57,10.9Zm0,23.33c6.72,0,9.84-4.7,9.84-10,0-5.86-3.65-10.18-9.84-10.18s-9.89,4.37-9.89,10.18C39.69,29.71,43,34.23,49.57,34.23Z"/><path class="cls-1" d="M71,11.71h4.32V16c1.78-3.26,5.52-4.85,9.94-4.85,6,0,10.61,2,10.61,9.31V36.87h-4.4v-15c0-5.9-2.45-7.49-7.63-7.49-5.47,0-8.54,4.32-8.54,8.88V36.87H71Z"/><path class="cls-1" d="M117.45,36.87h-5.28L100.55,11.71h4.8l9.5,21.75L124,11.71h4.51Z"/><path class="cls-1" d="M131.17,24.58c0-8.06,6-13.68,14.83-13.68,8.5,0,13,4.9,13,10.61a12,12,0,0,1-.53,3.65h-22.8c.38,6.58,4.85,9,10.42,9,6,0,8.69-3,8.4-5.9l3.79.34a3.66,3.66,0,0,1,.19,1.2c0,3.07-3.7,7.68-12.63,7.68C136.36,37.44,131.17,32.21,131.17,24.58Zm22.95-2.45a6.25,6.25,0,0,0,.14-1.1c0-4.08-2.54-7-8.3-7-6,0-9.36,3.5-10.13,8.11Z"/><path class="cls-1" d="M166,11.71h4.32v4.56c1.58-3.17,5-5.09,9.65-5.09,5.28,0,7.73,3.46,7.73,6.82a6.5,6.5,0,0,1-.34,2.3l-4.37.29a6.46,6.46,0,0,0,.24-1.82c0-2.59-1.25-4.22-4.94-4.22a8,8,0,0,0-8,8q0,.15,0,.31v14H166Z"/><path class="cls-1" d="M202.55,37.44c-8.11,0-11.38-3.31-11.38-7a8.6,8.6,0,0,1,.1-1.1l4-.34a4.14,4.14,0,0,0,0,.77c0,2.45,1.92,4.51,7.49,4.51,4.94,0,7.87-1.44,7.87-4.18,0-2.54-1.2-3-9.36-4.75-7-1.49-9.79-3.22-9.79-7.1,0-4.22,3.94-7.34,11.14-7.34,8.45,0,11.18,2.93,11.14,6.24a5.94,5.94,0,0,1-.19,1.58l-3.94.34a4.69,4.69,0,0,0,.24-1.34c0-2.45-2.64-3.74-7.3-3.74-5.09,0-6.72,1.82-6.72,3.7s.77,2.88,8.21,4.32c6.72,1.3,11,2.69,11,7.63C215,35,210.81,37.44,202.55,37.44Z"/><path class="cls-1" d="M220.5,30.39c0-4.56,4.22-7,10.66-7.68s8.45-1.15,9.7-2.3V19c0-3.36-1.87-4.9-7.25-4.9-6,0-7.15,2.11-7.15,4.32a3.14,3.14,0,0,0,.38,1.39l-4.32.38A4.13,4.13,0,0,1,221.9,18c0-3.79,4-6.82,11.86-6.82,8.21,0,11.52,2.06,11.52,9.17v11.4c0,2,.77,2.54,2.5,2.54a4.08,4.08,0,0,0,1.39-.29l.48,2.16a6.25,6.25,0,0,1-3.89,1.1,4.42,4.42,0,0,1-4.7-4c-1.39,2.06-3.79,4.18-10.56,4.18C224,37.44,220.5,34.71,220.5,30.39Zm20.4-2.45V23.33c-.86.67-3.6,1.44-7.78,1.87-5.76.58-8.16,1.87-8.16,4.85s2.26,4.18,6.24,4.18C237.88,34.23,240.9,31.88,240.9,27.94Z"/><path class="cls-1" d="M264.52,37.2c-5.14,0-6.62-2.5-6.62-7.3V14.5h-5.76V11.71h5.76V3.26h4.32v8.45h7.44V14.5h-7.45V30.39c0,2.35.72,3.6,3,3.6a8,8,0,0,0,4.56-1.49l.14,2.93A8.47,8.47,0,0,1,264.52,37.2Z"/><path class="cls-1" d="M276.9,5V0h4.9V5Zm.29,31.83V11.71h4.32V36.87Z"/><path class="cls-1" d="M303.25,10.9c6.77,0,14.35,4.27,14.35,13.3,0,9.22-7.34,13.25-14.35,13.25s-14.45-4-14.45-13.25C288.8,15.22,296.39,10.9,303.25,10.9Zm0,23.33c6.72,0,9.84-4.7,9.84-10,0-5.86-3.65-10.18-9.84-10.18s-9.89,4.37-9.89,10.18C293.36,29.71,296.72,34.23,303.25,34.23Z"/><path class="cls-1" d="M324.66,11.71H329V16c1.78-3.26,5.52-4.85,9.94-4.85,6,0,10.61,2,10.61,9.31V36.87h-4.37v-15c0-5.9-2.45-7.49-7.63-7.49-5.47,0-8.54,4.32-8.54,8.88V36.87H324.7Z"/><path class="cls-1" d="M368.44,37.44c-8.11,0-11.38-3.31-11.38-7a8.6,8.6,0,0,1,.1-1.1l4-.34a4.14,4.14,0,0,0,0,.77c0,2.45,1.92,4.51,7.49,4.51,4.94,0,7.87-1.44,7.87-4.18,0-2.54-1.2-3-9.36-4.75-7-1.49-9.79-3.22-9.79-7.1,0-4.22,3.94-7.34,11.14-7.34,8.45,0,11.18,2.93,11.14,6.24a5.94,5.94,0,0,1-.19,1.58l-3.94.34a4.69,4.69,0,0,0,.24-1.34c0-2.45-2.64-3.74-7.3-3.74-5.09,0-6.72,1.82-6.72,3.7s.77,2.88,8.21,4.32c6.72,1.3,11,2.69,11,7.63C380.92,35,376.69,37.44,368.44,37.44Z"/><path class="cls-1" d="M37.86,53V48h4.9v5Zm.32,31.87V59.71H42.5V84.87Z"/><path class="cls-1" d="M51.05,59.71h4.33V64c1.78-3.26,5.52-4.85,9.94-4.85,6,0,10.61,2,10.61,9.31V84.87H71.55v-15c0-5.9-2.45-7.49-7.63-7.49-5.47,0-8.54,4.32-8.54,8.88V84.87H51.05Z"/><path class="cls-1" d="M125.18,84.87V80.69c-1.44,2.3-5,4.75-10,4.75-7.15,0-13.44-4.18-13.44-12.58,0-9.46,6-13.68,13.39-13.68,4,0,8.54,1.92,10.13,4.75V48h4.32V84.87ZM115.46,62.4c-4.85,0-9.22,2.83-9.22,10.42,0,6.53,4.32,9.41,9.31,9.41s9.74-3.12,9.74-9.89S120.74,62.4,115.46,62.4Z"/><path class="cls-1" d="M136.48,78.39c0-4.56,4.22-7,10.66-7.68s8.45-1.15,9.7-2.3V67c0-3.36-1.87-4.9-7.25-4.9-6,0-7.15,2.11-7.15,4.32a3.15,3.15,0,0,0,.38,1.39l-4.32.38a4.12,4.12,0,0,1-.62-2.19c0-3.79,4-6.82,11.86-6.82,8.21,0,11.52,2.06,11.52,9.17V79.78c0,2,.77,2.54,2.5,2.54a4.08,4.08,0,0,0,1.42-.32l.48,2.16a6.25,6.25,0,0,1-3.89,1.1,4.42,4.42,0,0,1-4.7-4c-1.39,2.06-3.79,4.18-10.56,4.18C139.94,85.44,136.48,82.71,136.48,78.39Zm20.4-2.45V71.33c-.86.67-3.6,1.44-7.78,1.87-5.76.58-8.16,1.87-8.16,4.85s2.24,4.18,6.24,4.18c6.68,0,9.71-2.35,9.71-6.29Z"/><path class="cls-1" d="M171.71,59.71H176v4.56c1.58-3.17,5-5.09,9.65-5.09,5.28,0,7.73,3.46,7.73,6.82a6.48,6.48,0,0,1-.34,2.3l-4.37.29a6.46,6.46,0,0,0,.24-1.82c0-2.59-1.25-4.22-4.94-4.22a8,8,0,0,0-8,8q0,.15,0,.31v14h-4.32Z"/><path class="cls-1" d="M217.89,84.87l-9.5-12.1L204,77.28v7.58h-4.32V48H204V72.39L216.4,59.72h5.78l-10.75,9.79,12.19,15.36Z"/><path class="cls-1" d="M228.59,59.71h4.32V64c1.78-3.26,5.52-4.85,9.94-4.85,6,0,10.61,2,10.61,9.31V84.87h-4.37v-15c0-5.9-2.45-7.49-7.63-7.49-5.47,0-8.54,4.32-8.54,8.88V84.87H228.6Z"/><path class="cls-1" d="M260.32,72.58c0-8.06,6-13.68,14.83-13.68,8.5,0,13,4.9,13,10.61a12,12,0,0,1-.53,3.65h-22.8c.38,6.58,4.85,9,10.42,9,6,0,8.69-3,8.4-5.9l3.79.34a3.68,3.68,0,0,1,.19,1.2c0,3.07-3.7,7.68-12.62,7.68C265.5,85.44,260.32,80.21,260.32,72.58Zm22.95-2.45a6.31,6.31,0,0,0,.14-1.1c0-4.08-2.54-7-8.31-7-6,0-9.36,3.5-10.13,8.11Z"/><path class="cls-1" d="M305.87,85.44c-8.11,0-11.38-3.31-11.38-7a8.6,8.6,0,0,1,.1-1.1l4-.34a4.14,4.14,0,0,0,0,.77c0,2.45,1.92,4.51,7.49,4.51,4.94,0,7.87-1.44,7.87-4.18,0-2.54-1.2-3-9.36-4.75-7-1.49-9.79-3.22-9.79-7.1,0-4.22,3.94-7.34,11.14-7.34,8.45,0,11.18,2.93,11.14,6.24a5.94,5.94,0,0,1-.19,1.58l-3.94.34a4.69,4.69,0,0,0,.24-1.34c0-2.45-2.64-3.74-7.3-3.74-5.09,0-6.72,1.82-6.72,3.7s.77,2.88,8.21,4.32c6.72,1.3,11,2.69,11,7.63C318.35,83,314.13,85.44,305.87,85.44Z"/><path class="cls-1" d="M335,85.44c-8.11,0-11.38-3.31-11.38-7a8.6,8.6,0,0,1,.1-1.1l4-.34a4.14,4.14,0,0,0,0,.77c0,2.45,1.92,4.51,7.49,4.51,4.94,0,7.87-1.44,7.87-4.18,0-2.54-1.2-3-9.36-4.75-7-1.49-9.79-3.22-9.79-7.1,0-4.22,3.94-7.34,11.14-7.34,8.45,0,11.18,2.93,11.14,6.24a5.94,5.94,0,0,1-.19,1.58l-3.94.34a4.69,4.69,0,0,0,.24-1.34c0-2.45-2.64-3.74-7.3-3.74-5.09,0-6.72,1.82-6.72,3.7s.77,2.88,8.21,4.32c6.72,1.3,11,2.69,11,7.63C347.49,83,343.27,85.44,335,85.44Z"/></svg>